<svg width="20" height="20" viewBox="0 0 20 20" fill="none" xmlns="http://www.w3.org/2000/svg">
<path d="M6.99219 15.4084V6.94169C6.99219 6.60835 7.09219 6.28335 7.27552 6.00835L9.55052 2.62502C9.90885 2.08335 10.8005 1.70002 11.5589 1.98335C12.3755 2.25835 12.9172 3.17502 12.7422 3.99169L12.3089 6.71669C12.2755 6.96669 12.3422 7.19169 12.4839 7.36669C12.6255 7.52502 12.8339 7.62502 13.0589 7.62502H16.4839C17.1422 7.62502 17.7089 7.89169 18.0422 8.35835C18.3589 8.80835 18.4172 9.39169 18.2089 9.98335L16.1589 16.225C15.9005 17.2584 14.7755 18.1 13.6589 18.1H10.4089C9.85052 18.1 9.06719 17.9084 8.70885 17.55L7.64219 16.725C7.23385 16.4167 6.99219 15.925 6.99219 15.4084Z" fill="white"/>
<path d="M4.34102 5.31665H3.48268C2.19102 5.31665 1.66602 5.81665 1.66602 7.04998V15.4333C1.66602 16.6667 2.19102 17.1667 3.48268 17.1667H4.34102C5.63268 17.1667 6.15768 16.6667 6.15768 15.4333V7.04998C6.15768 5.81665 5.63268 5.31665 4.34102 5.31665Z" fill="white"/>
</svg>
